# xmcd
#
# Track frame offsets:
#	150
#	13007
#	27347
#	44885
#	59557
#	75020
#	90315
#	105360
#	117562
#	130967
#	148492
#	160132
#	171227
#	184297
#	198247
#	215042
#	246535
#	263187
#	277290
#
# Disc length: 3872 seconds
# Revision: 1
# Processed by: cddbd v1.5.2PL0 Copyright (c) Steve Scherf et al.
# Submitted via: dBpowerAMP V12.0
#
DISCID=250f1e13
DTITLE=Various Artist - CBS Records: Tree International 1958-1988 (4 Of 4)
DYEAR=1989
DGENRE=Country
TTITLE0=The O'Kanes - Can't Stop My Heart From Loving You
TTITLE1=The O'Kanes - Daddies Need To Grow Up
TTITLE2=Exile - Feel Like Fooling Around
TTITLE3=The O'Kanes - Just Lovin' You
TTITLE4=Tammy Wynette - Talkin' To Myself Again
TTITLE5=Ricky Van Shelton - Life Turned Her That Way
TTITLE6=The O'Kanes - One True Love
TTITLE7=Janie Frickie - I'll Walk Before I'll Crawl
TTITLE8=Tammy Wynette - Beneath A Painted Sky
TTITLE9=Exile - Just One Kiss
TTITLE10=Ricky Van Shelton - Don't We All Have The Right
TTITLE11=Vern Gosdin - Set 'Em Up Joe
TTITLE12=T. G. Sheppard - Don't Say It With Diamonds
TTITLE13=The O'Kanes - Blue Love
TTITLE14=Merle Haggard - We Never Touch At All
TTITLE15=The O'Kanes - Rocky Road
TTITLE16=Exile - It's You Again
TTITLE17=Ricky Van Shelton - I'll Leave This World Loving You
TTITLE18=Sweethearts Of The Rodeo - Blue To The Bone
EXTD=
EXTT0=
EXTT1=
EXTT2=
EXTT3=
EXTT4=
EXTT5=
EXTT6=
EXTT7=
EXTT8=
EXTT9=
EXTT10=
EXTT11=
EXTT12=
EXTT13=
EXTT14=
EXTT15=
EXTT16=
EXTT17=
EXTT18=
PLAYORDER=
